<mxfile host="app.diagrams.net" agent="Mozilla/5.0 (X11; Linux x86_64) AppleWebKit/537.36 (KHTML, like Gecko) Chrome/135.0.0.0 Safari/537.36" version="26.3.0">
  <diagram id="C5RBs43oDa-KdzZeNtuy" name="Page-1">
    <mxGraphModel dx="2253" dy="945" grid="1" gridSize="10" guides="1" tooltips="1" connect="1" arrows="1" fold="1" page="1" pageScale="1" pageWidth="827" pageHeight="1169" math="0" shadow="0">
      <root>
        <mxCell id="WIyWlLk6GJQsqaUBKTNV-0" />
        <mxCell id="WIyWlLk6GJQsqaUBKTNV-1" parent="WIyWlLk6GJQsqaUBKTNV-0" />
        <mxCell id="YxOy0pmNRRjboRJVO0OH-23" value="Isma Contaier" style="swimlane;whiteSpace=wrap;html=1;" vertex="1" parent="WIyWlLk6GJQsqaUBKTNV-1">
          <mxGeometry x="200" y="20" width="580" height="390" as="geometry" />
        </mxCell>
        <mxCell id="YxOy0pmNRRjboRJVO0OH-12" value="API Container" style="swimlane;whiteSpace=wrap;html=1;" vertex="1" parent="WIyWlLk6GJQsqaUBKTNV-1">
          <mxGeometry x="-280" y="20" width="450" height="390" as="geometry" />
        </mxCell>
        <mxCell id="YxOy0pmNRRjboRJVO0OH-15" value="&amp;lt;&amp;lt;Interface&amp;gt;&amp;gt;&lt;div&gt;AvatarConnector&lt;/div&gt;" style="swimlane;fontStyle=1;align=center;verticalAlign=top;childLayout=stackLayout;horizontal=1;startSize=60;horizontalStack=0;resizeParent=1;resizeParentMax=0;resizeLast=0;collapsible=1;marginBottom=0;whiteSpace=wrap;html=1;fillStyle=auto;" vertex="1" parent="YxOy0pmNRRjboRJVO0OH-12">
          <mxGeometry x="20" y="40" width="320" height="120" as="geometry">
            <mxRectangle x="60" y="50" width="120" height="40" as="alternateBounds" />
          </mxGeometry>
        </mxCell>
        <mxCell id="YxOy0pmNRRjboRJVO0OH-17" value="" style="line;strokeWidth=1;fillColor=none;align=left;verticalAlign=middle;spacingTop=-1;spacingLeft=3;spacingRight=3;rotatable=0;labelPosition=right;points=[];portConstraint=eastwest;strokeColor=inherit;" vertex="1" parent="YxOy0pmNRRjboRJVO0OH-15">
          <mxGeometry y="60" width="320" height="8" as="geometry" />
        </mxCell>
        <mxCell id="YxOy0pmNRRjboRJVO0OH-18" value="+ dryRequest(EndpointRequest):EndpointResponse&lt;div&gt;+ executeRequest(EndpointRequest):EndpointResponse&amp;nbsp;&lt;/div&gt;" style="text;strokeColor=none;fillColor=none;align=left;verticalAlign=top;spacingLeft=4;spacingRight=4;overflow=hidden;rotatable=0;points=[[0,0.5],[1,0.5]];portConstraint=eastwest;whiteSpace=wrap;html=1;" vertex="1" parent="YxOy0pmNRRjboRJVO0OH-15">
          <mxGeometry y="68" width="320" height="52" as="geometry" />
        </mxCell>
        <mxCell id="YxOy0pmNRRjboRJVO0OH-19" value="&amp;lt;&amp;lt;Interface&amp;gt;&amp;gt;&lt;div&gt;AvatarConnectorInfo&lt;/div&gt;" style="swimlane;fontStyle=1;align=center;verticalAlign=top;childLayout=stackLayout;horizontal=1;startSize=60;horizontalStack=0;resizeParent=1;resizeParentMax=0;resizeLast=0;collapsible=1;marginBottom=0;whiteSpace=wrap;html=1;fillStyle=auto;" vertex="1" parent="YxOy0pmNRRjboRJVO0OH-12">
          <mxGeometry x="60" y="210" width="280" height="120" as="geometry">
            <mxRectangle x="60" y="50" width="120" height="40" as="alternateBounds" />
          </mxGeometry>
        </mxCell>
        <mxCell id="YxOy0pmNRRjboRJVO0OH-20" value="" style="line;strokeWidth=1;fillColor=none;align=left;verticalAlign=middle;spacingTop=-1;spacingLeft=3;spacingRight=3;rotatable=0;labelPosition=right;points=[];portConstraint=eastwest;strokeColor=inherit;" vertex="1" parent="YxOy0pmNRRjboRJVO0OH-19">
          <mxGeometry y="60" width="280" height="8" as="geometry" />
        </mxCell>
        <mxCell id="YxOy0pmNRRjboRJVO0OH-21" value="+ getEndpoints():List&amp;lt;ConnectorEndpoint&amp;gt;&lt;div&gt;+ getInfo():ConnectorInfo&amp;nbsp;&lt;/div&gt;" style="text;strokeColor=none;fillColor=none;align=left;verticalAlign=top;spacingLeft=4;spacingRight=4;overflow=hidden;rotatable=0;points=[[0,0.5],[1,0.5]];portConstraint=eastwest;whiteSpace=wrap;html=1;" vertex="1" parent="YxOy0pmNRRjboRJVO0OH-19">
          <mxGeometry y="68" width="280" height="52" as="geometry" />
        </mxCell>
        <mxCell id="YxOy0pmNRRjboRJVO0OH-24" value="Extends" style="html=1;verticalAlign=bottom;endArrow=block;curved=0;rounded=0;entryX=0.5;entryY=0;entryDx=0;entryDy=0;" edge="1" parent="YxOy0pmNRRjboRJVO0OH-12" target="YxOy0pmNRRjboRJVO0OH-19">
          <mxGeometry width="80" relative="1" as="geometry">
            <mxPoint x="200" y="160" as="sourcePoint" />
            <mxPoint x="290" y="380.5" as="targetPoint" />
          </mxGeometry>
        </mxCell>
      </root>
    </mxGraphModel>
  </diagram>
</mxfile>
